<svg width="231" height="108" viewBox="0 0 231 108" fill="none" xmlns="http://www.w3.org/2000/svg">
<path d="M91.7712 34.6653H84.4219C83.579 34.6653 83.1575 34.876 83.1575 35.2975V84.2926H74.86C73.0687 84.2926 71.8834 84.0292 71.3039 83.5023C70.777 82.9228 70.5136 81.7375 70.5136 79.9463V31.6624C70.5136 29.8184 70.777 28.6067 71.3039 28.0272C71.8834 27.4477 73.0687 27.158 74.86 27.158H91.7712V34.6653ZM96.1965 59.4789H103.704C105.864 59.4789 107.26 59.9794 107.892 60.9804C108.524 61.9287 108.84 63.4565 108.84 65.5638V77.2594C108.84 80.7365 107.918 82.8702 106.075 83.6604C105.179 84.0819 104.046 84.2926 102.677 84.2926H86.3185V76.8643H92.9565C95.1165 76.8643 96.1965 76.1004 96.1965 74.5726V59.4789ZM95.1692 27.158H102.677C104.784 27.158 106.127 27.6321 106.707 28.5804C107.339 29.5287 107.655 31.0828 107.655 33.2428V48.4155C107.655 51.4711 107.102 53.6838 105.996 55.0536C104.942 56.4233 102.703 57.1082 99.2785 57.1082H86.3185V49.6009H92.1663C93.4834 49.6009 94.3 49.2848 94.616 48.6526C94.9848 48.0204 95.1692 47.0458 95.1692 45.7287V27.158Z" fill="white"/>
<path d="M131.622 84.2926H123.324C121.533 84.2926 120.348 84.0028 119.768 83.4233C119.241 82.8438 118.978 81.6321 118.978 79.7882V30.3189C118.978 29.3706 119.241 28.6067 119.768 28.0272C120.295 27.4477 120.98 27.158 121.823 27.158H131.622V84.2926ZM134.783 27.158H144.819C149.824 27.158 153.143 28.3433 154.776 30.7141C156.462 33.0321 157.305 37.7209 157.305 44.7804C157.305 49.4692 156.778 53.1306 155.724 55.7648C154.723 58.3989 153.38 60.1638 151.694 61.0594C150.008 61.9023 147.716 62.3238 144.819 62.3238H134.783V54.8165H140.63C142 54.8165 142.869 54.6321 143.238 54.2633C143.66 53.8945 143.87 53.315 143.87 52.5248V37.036C143.87 36.1931 143.66 35.5872 143.238 35.2184C142.869 34.8497 142 34.6653 140.63 34.6653H134.783V27.158Z" fill="white"/>
<path d="M206.842 27.158H218.696C222.542 27.158 225.439 27.8165 227.389 29.1336C229.391 30.4506 230.392 32.7424 230.392 36.0087V79.7882C230.392 81.6321 230.102 82.8438 229.522 83.4233C228.996 84.0028 227.837 84.2926 226.045 84.2926H217.748V36.957C217.748 36.1141 217.616 35.5345 217.353 35.2184C217.142 34.8497 216.562 34.6653 215.614 34.6653H206.842V27.158ZM178.157 84.2926H169.859C168.068 84.2926 166.882 84.0028 166.303 83.4233C165.776 82.8438 165.513 81.6321 165.513 79.7882V30.3189C165.513 29.3706 165.776 28.6067 166.303 28.0272C166.83 27.4477 167.515 27.158 168.358 27.158H178.157V84.2926ZM181.397 27.158H201.627C202.47 27.158 203.155 27.4477 203.681 28.0272C204.208 28.6067 204.472 29.3706 204.472 30.3189V78.5238H196.253C194.673 78.5238 193.54 78.1023 192.855 77.2594C192.17 76.3638 191.828 74.9414 191.828 72.9921V36.957C191.828 36.1141 191.696 35.5345 191.433 35.2184C191.222 34.8497 190.642 34.6653 189.694 34.6653H181.397V27.158Z" fill="white"/>
<path d="M0 19.7561C0 17.283 2.00489 15.2781 4.47805 15.2781V15.2781C6.95121 15.2781 8.9561 17.283 8.9561 19.7561V88.2439C8.9561 90.7171 6.95121 92.722 4.47805 92.722V92.722C2.00489 92.722 0 90.7171 0 88.2439V19.7561Z" fill="#09DA94"/>
<path d="M13.6976 4.47805C13.6976 2.00489 15.7025 0 18.1756 0V0C20.6488 0 22.6537 2.00489 22.6537 4.47805V103.522C22.6537 105.995 20.6488 108 18.1756 108V108C15.7025 108 13.6976 105.995 13.6976 103.522V4.47805Z" fill="#09DA94"/>
<path d="M27.3951 32.9268C27.3951 30.4536 29.4 28.4487 31.8732 28.4487V28.4487C34.3463 28.4487 36.3512 30.4536 36.3512 32.9268V75.0731C36.3512 77.5463 34.3463 79.5512 31.8732 79.5512V79.5512C29.4 79.5512 27.3951 77.5463 27.3951 75.0731V32.9268Z" fill="#09DA94"/>
<path d="M41.0927 16.3318C41.0927 13.7132 43.2155 11.5903 45.8341 11.5903V11.5903C48.4528 11.5903 50.5756 13.7132 50.5756 16.3318V91.1416C50.5756 93.7602 48.4528 95.883 45.8341 95.883V95.883C43.2155 95.883 41.0927 93.7602 41.0927 91.1416V16.3318Z" fill="#09DA94"/>
<path d="M55.3171 29.326C55.3171 26.8048 57.3609 24.761 59.8821 24.761V24.761C62.4033 24.761 64.4471 26.8048 64.4471 29.326V78.1472C64.4471 80.6684 62.4033 82.7122 59.8821 82.7122V82.7122C57.3609 82.7122 55.3171 80.6684 55.3171 78.1472V29.326Z" fill="#09DA94"/>
</svg>
