<svg width="300" height="300" viewBox="0 0 300 300" fill="none" xmlns="http://www.w3.org/2000/svg">
<rect width="300" height="300" rx="30" fill="#0B291E"/>
<path d="M126.771 130.665H119.422C118.579 130.665 118.158 130.876 118.158 131.297V180.293H109.86C108.069 180.293 106.883 180.029 106.304 179.502C105.777 178.923 105.514 177.737 105.514 175.946V127.662C105.514 125.818 105.777 124.607 106.304 124.027C106.883 123.448 108.069 123.158 109.86 123.158H126.771V130.665ZM131.197 155.479H138.704C140.864 155.479 142.26 155.979 142.892 156.98C143.524 157.929 143.84 159.456 143.84 161.564V173.259C143.84 176.736 142.919 178.87 141.075 179.66C140.179 180.082 139.046 180.293 137.677 180.293H121.319V172.864H127.957C130.117 172.864 131.197 172.1 131.197 170.573V155.479ZM130.169 123.158H137.677C139.784 123.158 141.127 123.632 141.707 124.58C142.339 125.529 142.655 127.083 142.655 129.243V144.416C142.655 147.471 142.102 149.684 140.996 151.054C139.942 152.423 137.703 153.108 134.279 153.108H121.319V145.601H127.166C128.483 145.601 129.3 145.285 129.616 144.653C129.985 144.02 130.169 143.046 130.169 141.729V123.158Z" fill="white"/>
<path d="M166.622 180.293H158.324C156.533 180.293 155.348 180.003 154.768 179.423C154.241 178.844 153.978 177.632 153.978 175.788V126.319C153.978 125.371 154.241 124.607 154.768 124.027C155.295 123.448 155.98 123.158 156.823 123.158H166.622V180.293ZM169.783 123.158H179.819C184.824 123.158 188.143 124.343 189.776 126.714C191.462 129.032 192.305 133.721 192.305 140.78C192.305 145.469 191.778 149.131 190.724 151.765C189.723 154.399 188.38 156.164 186.694 157.059C185.008 157.902 182.716 158.324 179.819 158.324H169.783V150.816H175.63C177 150.816 177.87 150.632 178.238 150.263C178.66 149.895 178.87 149.315 178.87 148.525V133.036C178.87 132.193 178.66 131.587 178.238 131.218C177.87 130.85 177 130.665 175.63 130.665H169.783V123.158Z" fill="white"/>
<path d="M241.842 123.158H253.696C257.542 123.158 260.44 123.816 262.389 125.134C264.391 126.451 265.392 128.742 265.392 132.009V175.788C265.392 177.632 265.102 178.844 264.522 179.423C263.996 180.003 262.837 180.293 261.045 180.293H252.748V132.957C252.748 132.114 252.616 131.535 252.353 131.218C252.142 130.85 251.562 130.665 250.614 130.665H241.842V123.158ZM213.157 180.293H204.859C203.068 180.293 201.882 180.003 201.303 179.423C200.776 178.844 200.513 177.632 200.513 175.788V126.319C200.513 125.371 200.776 124.607 201.303 124.027C201.83 123.448 202.515 123.158 203.358 123.158H213.157V180.293ZM216.397 123.158H236.627C237.47 123.158 238.155 123.448 238.681 124.027C239.208 124.607 239.472 125.371 239.472 126.319V174.524H231.253C229.673 174.524 228.54 174.102 227.855 173.259C227.17 172.364 226.828 170.941 226.828 168.992V132.957C226.828 132.114 226.696 131.535 226.433 131.218C226.222 130.85 225.642 130.665 224.694 130.665H216.397V123.158Z" fill="white"/>
<path d="M35 115.756C35 113.283 37.0049 111.278 39.478 111.278V111.278C41.9512 111.278 43.9561 113.283 43.9561 115.756V184.244C43.9561 186.717 41.9512 188.722 39.478 188.722V188.722C37.0049 188.722 35 186.717 35 184.244V115.756Z" fill="#09DA94"/>
<path d="M48.6976 100.478C48.6976 98.0049 50.7025 96 53.1756 96V96C55.6488 96 57.6537 98.0049 57.6537 100.478V199.522C57.6537 201.995 55.6488 204 53.1756 204V204C50.7025 204 48.6976 201.995 48.6976 199.522V100.478Z" fill="#09DA94"/>
<path d="M62.3951 128.927C62.3951 126.454 64.4 124.449 66.8732 124.449V124.449C69.3463 124.449 71.3512 126.454 71.3512 128.927V171.073C71.3512 173.546 69.3463 175.551 66.8732 175.551V175.551C64.4 175.551 62.3951 173.546 62.3951 171.073V128.927Z" fill="#09DA94"/>
<path d="M76.0927 112.332C76.0927 109.713 78.2155 107.59 80.8341 107.59V107.59C83.4528 107.59 85.5756 109.713 85.5756 112.332V187.142C85.5756 189.76 83.4528 191.883 80.8341 191.883V191.883C78.2155 191.883 76.0927 189.76 76.0927 187.142V112.332Z" fill="#09DA94"/>
<path d="M90.3171 125.326C90.3171 122.805 92.3609 120.761 94.8821 120.761V120.761C97.4033 120.761 99.4471 122.805 99.4471 125.326V174.147C99.4471 176.668 97.4033 178.712 94.8821 178.712V178.712C92.3609 178.712 90.3171 176.668 90.3171 174.147V125.326Z" fill="#09DA94"/>
</svg>
